# xmcd CD database file
#
# Track frame offsets:
#	150
#	11426
#	25937
#	40317
#	52024
#	67290
#	79914
#	94308
#	110169
#	124486
#	137152
#	153050
#	163150
#	178675
#	190667
#
# Disc length: 2722 seconds
#
# Revision: 1
# Processed by: cddbd v1.5.2PL0 Copyright (c) Steve Scherf et al.
# Submitted via: CDex 1.70beta2
#
DISCID=d60aa00f
DTITLE=Jennjifer and Kieran - Cdn. - ON - Home Sweet Home 
DYEAR=2005
DGENRE=Country
TTITLE0=Old Slash Road
TTITLE1=Dragonfly
TTITLE2=Slippers With Wings
TTITLE3=Lost River
TTITLE4=Home Sweet Home
TTITLE5=She Don't Need Your Man
TTITLE6=My Old Guitar
TTITLE7=Down At the Twist and Shout
TTITLE8=If Your Hands Aren't Free - Gospel
TTITLE9=Look At Me
TTITLE10=My Quinte Home
TTITLE11=Lousisiana Saturday Night
TTITLE12=Promises of Love
TTITLE13=High Cotton
TTITLE14=Watching Over Everyone
EXTD=YEAR: 2005
EXTT0=
EXTT1=
EXTT2=
EXTT3=
EXTT4=
EXTT5=
EXTT6=
EXTT7=
EXTT8=
EXTT9=
EXTT10=
EXTT11=
EXTT12=
EXTT13=
EXTT14=
PLAYORDER=
